{
  "accessors": [
    {
      "bufferView": 0,
      "componentType": 5126,
      "count": 874,
      "max": [
        0.0379393994808197,
        0.07462239265441895,
        1.0239369869232178
      ],
      "min": [
        -0.03788822889328003,
        -0.06546980142593384,
        -0.2570725381374359
      ],
      "type": "VEC3"
    },
    {
      "bufferView": 1,
      "componentType": 5126,
      "count": 874,
      "max": [
        0.9999375939369202,
        0.999845564365387,
        0.9715321660041809
      ],
      "min": [
        -1.0,
        -0.9999688267707825,
        -1.0
      ],
      "type": "VEC3"
    },
    {
      "bufferView": 2,
      "componentType": 5126,
      "count": 874,
      "max": [
        0.9999995827674866,
        0.9860600829124451,
        0.8224099278450012,
        1.0
      ],
      "min": [
        -1.0,
        -0.9925631284713745,
        -0.9996569752693176,
        -1.0
      ],
      "type": "VEC4"
    },
    {
      "bufferView": 3,
      "componentType": 5126,
      "count": 874,
      "max": [
        0.9990234375,
        0.99853515625
      ],
      "min": [
        0.00962066650390625,
        0.454345703125
      ],
      "type": "VEC2"
    },
    {
      "bufferView": 4,
      "componentType": 5126,
      "count": 874,
      "max": [
        0.0,
        0.0
      ],
      "min": [
        0.0,
        0.0
      ],
      "type": "VEC2"
    },
    {
      "bufferView": 5,
      "componentType": 5125,
      "count": 4326,
      "max": [
        873
      ],
      "min": [
        0
      ],
      "type": "SCALAR"
    }
  ],
  "asset": {
    "version": "2.0"
  },
  "bufferViews": [
    {
      "buffer": 0,
      "byteLength": 10488,
      "target": 34962
    },
    {
      "buffer": 0,
      "byteLength": 10488,
      "byteOffset": 10488,
      "target": 34962
    },
    {
      "buffer": 0,
      "byteLength": 13984,
      "byteOffset": 20976,
      "target": 34962
    },
    {
      "buffer": 0,
      "byteLength": 6992,
      "byteOffset": 34960,
      "target": 34962
    },
    {
      "buffer": 0,
      "byteLength": 6992,
      "byteOffset": 41952,
      "target": 34962
    },
    {
      "buffer": 0,
      "byteLength": 17304,
      "byteOffset": 48944,
      "target": 34963
    }
  ],
  "buffers": [
    {
      "byteLength": 66248,
      "uri": "data:application/octet-stream;base64,"
    }
  ],
  "images": [
    {
      "uri": "MI_Aurora_Sword_FrozenHearth_BaseColor.png"
    },
    {
      "uri": "MI_Aurora_Sword_FrozenHearth_Occlusion-MI_Aurora_Sword_FrozenHearth_MetallicRoughness.png"
    },
    {
      "uri": "MI_Aurora_Sword_FrozenHearth_Normal.png"
    }
  ],
  "materials": [
    {
      "alphaCutoff": 0.33329999446868896,
      "alphaMode": "BLEND",
      "name": "MI_Aurora_Sword_FrozenHearth",
      "normalTexture": {
        "index": 2
      },
      "occlusionTexture": {
        "index": 1
      },
      "pbrMetallicRoughness": {
        "baseColorTexture": {
          "index": 0
        },
        "metallicRoughnessTexture": {
          "index": 1
        }
      }
    }
  ],
  "meshes": [
    {
      "primitives": [
        {
          "attributes": {
            "NORMAL": 1,
            "POSITION": 0,
            "TANGENT": 2,
            "TEXCOORD_0": 3,
            "TEXCOORD_1": 4
          },
          "indices": 5,
          "material": 0,
          "mode": 4
        }
      ]
    }
  ],
  "nodes": [
    {
      "mesh": 0,
      "name": "Mesh_0.001",
      "rotation": [
        0.0,
        0.0,
        0.0,
        1.0
      ],
      "scale": [
        1.0,
        1.0,
        1.0
      ],
      "translation": [
        0.0,
        0.0,
        0.0
      ]
    }
  ],
  "samplers": [
    {
      "wrapS": 10497,
      "wrapT": 10497
    }
  ],
  "scenes": [
    {
      "nodes": [
        0
      ]
    }
  ],
  "textures": [
    {
      "sampler": 0,
      "source": 0
    },
    {
      "sampler": 0,
      "source": 1
    },
    {
      "sampler": 0,
      "source": 2
    }
  ]
}
