{
	"asset":
	{
		"version": "2.0",
		"generator": "Unreal Engine 5.3.2"
	},
	"scene": 0,
	"accessors": [
		{
			"bufferView": 0,
			"count": 3744,
			"type": "SCALAR",
			"componentType": 5123
		},
		{
			"bufferView": 1,
			"count": 734,
			"type": "VEC3",
			"componentType": 5126,
			"min": [ -0.116629511, -0.407702178, -0.387052178 ],
			"max": [ 0.894271374, 0.331370771, 0.462862104 ]
		},
		{
			"bufferView": 2,
			"count": 734,
			"type": "VEC3",
			"componentType": 5126
		},
		{
			"bufferView": 3,
			"count": 734,
			"type": "VEC4",
			"componentType": 5126
		},
		{
			"bufferView": 4,
			"count": 734,
			"type": "VEC2",
			"componentType": 5126
		},
		{
			"bufferView": 5,
			"count": 734,
			"type": "VEC2",
			"componentType": 5126
		},
		{
			"bufferView": 6,
			"count": 734,
			"type": "VEC2",
			"componentType": 5126
		}
	],
	"buffers": [
		{
			"uri": "SM_Ice_Spikes.bin",
			"byteLength": 54464
		}
	],
	"bufferViews": [
		{
			"buffer": 0,
			"byteLength": 7488,
			"target": 34963
		},
		{
			"buffer": 0,
			"byteLength": 8808,
			"byteOffset": 7488,
			"target": 34962
		},
		{
			"buffer": 0,
			"byteLength": 8808,
			"byteOffset": 16296,
			"target": 34962
		},
		{
			"buffer": 0,
			"byteLength": 11744,
			"byteOffset": 25104,
			"target": 34962
		},
		{
			"buffer": 0,
			"byteLength": 5872,
			"byteOffset": 36848,
			"target": 34962
		},
		{
			"buffer": 0,
			"byteLength": 5872,
			"byteOffset": 42720,
			"target": 34962
		},
		{
			"buffer": 0,
			"byteLength": 5872,
			"byteOffset": 48592,
			"target": 34962
		}
	],
	"images": [
		{
			"uri": "M_Aurora_Spike_Mesh_BaseColor.png"
		},
		{
			"uri": "M_Aurora_Spike_Mesh_MetallicRoughness.png"
		},
		{
			"uri": "M_Aurora_Spike_Mesh_Normal.png"
		}
	],
	"materials": [
		{
			"name": "M_Aurora_Spike_Mesh",
			"pbrMetallicRoughness":
			{
				"baseColorTexture":
				{
					"index": 0,
					"texCoord": 1
				},
				"metallicRoughnessTexture":
				{
					"index": 1
				}
			},
			"normalTexture":
			{
				"index": 2
			},
			"alphaMode": "MASK",
			"alphaCutoff": 0.333299994
		}
	],
	"meshes": [
		{
			"name": "SM_Ice_Spikes",
			"primitives": [
				{
					"attributes":
					{
						"POSITION": 1,
						"NORMAL": 2,
						"TANGENT": 3,
						"TEXCOORD_0": 4,
						"TEXCOORD_1": 5,
						"TEXCOORD_2": 6
					},
					"indices": 0,
					"material": 0
				}
			]
		}
	],
	"nodes": [
		{
			"mesh": 0
		}
	],
	"samplers": [
		{
			"minFilter": 9987,
			"magFilter": 9729
		}
	],
	"scenes": [
		{
			"nodes": [ 0 ]
		}
	],
	"textures": [
		{
			"name": "M_Aurora_Spike_Mesh_BaseColor",
			"sampler": 0,
			"source": 0
		},
		{
			"name": "M_Aurora_Spike_Mesh_MetallicRoughness",
			"sampler": 0,
			"source": 1
		},
		{
			"name": "M_Aurora_Spike_Mesh_Normal",
			"sampler": 0,
			"source": 2
		}
	]
}