{
	"asset":{
		"generator":"Khronos glTF Blender I/O v4.2.57",
		"version":"2.0"
	},
	"scene":0,
	"scenes":[
		{
			"name":"Scene",
			"nodes":[
				0
			]
		}
	],
	"nodes":[
		{
			"mesh":0,
			"name":"ClothModel",
			"rotation":[
				-0.7071068286895752,
				0,
				0,
				0.7071068286895752
			]
		}
	],
	"materials":[
		{
			"name":"M_Cloth",
			"normalTexture":{
				"index":0
			},
			"occlusionTexture":{
				"index":1
			},
			"pbrMetallicRoughness":{
				"baseColorTexture":{
					"index":2
				},
				"metallicFactor":0,
				"metallicRoughnessTexture":{
					"index":1
				}
			}
		}
	],
	"meshes":[
		{
			"name":"Mesh_0",
			"primitives":[
				{
					"attributes":{
						"POSITION":0,
						"NORMAL":1,
						"TEXCOORD_0":2
					},
					"indices":3,
					"material":0
				}
			]
		}
	],
	"textures":[
		{
			"sampler":0,
			"source":0
		},
		{
			"sampler":0,
			"source":1
		},
		{
			"sampler":0,
			"source":2
		}
	],
	"images":[
		{
			"mimeType":"image/png",
			"name":"m_cloth_Normal",
			"uri":"m_cloth_Normal.png"
		},
		{
			"mimeType":"image/png",
			"name":"M_Cloth_Opacity-m_cloth_metalness_roughness",
			"uri":"M_Cloth_Opacity-m_cloth_metalness_roughness.png"
		},
		{
			"mimeType":"image/png",
			"name":"m_cloth_BaseColor",
			"uri":"m_cloth_BaseColor.png"
		}
	],
	"accessors":[
		{
			"bufferView":0,
			"componentType":5126,
			"count":341,
			"max":[
				0.6000000834465027,
				1.8000000715255737,
				0
			],
			"min":[
				-0.6000000834465027,
				-1.7999999523162842,
				0
			],
			"type":"VEC3"
		},
		{
			"bufferView":1,
			"componentType":5126,
			"count":341,
			"type":"VEC3"
		},
		{
			"bufferView":2,
			"componentType":5126,
			"count":341,
			"type":"VEC2"
		},
		{
			"bufferView":3,
			"componentType":5123,
			"count":1800,
			"type":"SCALAR"
		}
	],
	"bufferViews":[
		{
			"buffer":0,
			"byteLength":4092,
			"byteOffset":0,
			"target":34962
		},
		{
			"buffer":0,
			"byteLength":4092,
			"byteOffset":4092,
			"target":34962
		},
		{
			"buffer":0,
			"byteLength":2728,
			"byteOffset":8184,
			"target":34962
		},
		{
			"buffer":0,
			"byteLength":3600,
			"byteOffset":10912,
			"target":34963
		}
	],
	"samplers":[
		{
			"magFilter":9729,
			"minFilter":9987
		}
	],
	"buffers":[
		{
			"byteLength":14512,
			"uri":"ClothModel.bin"
		}
	]
}
