{
  "accessors": [
    {
      "bufferView": 0,
      "componentType": 5126,
      "count": 1389,
      "max": [
        0.7880544066429138,
        1.052371859550476,
        0.15976735949516296
      ],
      "min": [
        -0.7880544066429138,
        0.0358671173453331,
        -0.3103986382484436
      ],
      "type": "VEC3"
    },
    {
      "bufferView": 1,
      "componentType": 5126,
      "count": 1389,
      "max": [
        1.0,
        1.0,
        1.0
      ],
      "min": [
        -1.0,
        -1.0,
        -1.0
      ],
      "type": "VEC3"
    },
    {
      "bufferView": 2,
      "componentType": 5126,
      "count": 1389,
      "max": [
        1.0,
        1.0,
        1.0,
        1.0
      ],
      "min": [
        -0.9997696280479431,
        -1.0,
        -1.0,
        -1.0
      ],
      "type": "VEC4"
    },
    {
      "bufferView": 3,
      "componentType": 5126,
      "count": 1389,
      "max": [
        1.0000001192092896,
        1.0000001192092896
      ],
      "min": [
        0.0,
        0.0
      ],
      "type": "VEC2"
    },
    {
      "bufferView": 4,
      "componentType": 5125,
      "count": 6264,
      "max": [
        1388
      ],
      "min": [
        0
      ],
      "type": "SCALAR"
    }
  ],
  "asset": {
    "version": "2.0"
  },
  "bufferViews": [
    {
      "buffer": 0,
      "byteLength": 16668,
      "target": 34962
    },
    {
      "buffer": 0,
      "byteLength": 16668,
      "byteOffset": 16668,
      "target": 34962
    },
    {
      "buffer": 0,
      "byteLength": 22224,
      "byteOffset": 33336,
      "target": 34962
    },
    {
      "buffer": 0,
      "byteLength": 11112,
      "byteOffset": 55560,
      "target": 34962
    },
    {
      "buffer": 0,
      "byteLength": 25056,
      "byteOffset": 66672,
      "target": 34963
    }
  ],
  "buffers": [
    {
      "byteLength": 91728,
      "uri": "data:application/octet-stream;base64,"
    }
  ],
  "materials": [
    {
      "name": "standardSurface1",
      "pbrMetallicRoughness": {
        "baseColorFactor": [
          0.5559845566749573,
          0.5541277527809143,
          0.07513303309679031,
          1.0
        ],
        "metallicFactor": 0.0
      }
    }
  ],
  "meshes": [
    {
      "primitives": [
        {
          "attributes": {
            "NORMAL": 1,
            "POSITION": 0,
            "TANGENT": 2,
            "TEXCOORD_0": 3
          },
          "indices": 4,
          "material": 0,
          "mode": 4
        }
      ]
    }
  ],
  "nodes": [
    {
      "mesh": 0,
      "name": "ClothPoleModel",
      "rotation": [
        0.0,
        0.0,
        0.0,
        1.0
      ],
      "scale": [
        1.0,
        1.0,
        1.0
      ],
      "translation": [
        0.0,
        -0.04736897721886635,
        0.0
      ]
    }
  ],
  "samplers": [
    {
      "wrapS": 10497,
      "wrapT": 10497
    }
  ],
  "scenes": [
    {
      "nodes": [
        0
      ]
    }
  ]
}
